<svg xmlns="http://www.w3.org/2000/svg" xmlns:xlink="http://www.w3.org/1999/xlink" preserveAspectRatio="xMidYMid" width="22" height="32" viewBox="0 0 22 32">
  <defs>
    <style>

      .cls-2 {
        fill: #f4f3f1;
      }
    </style>
  </defs>
  <path d="M11.000,32.000 C4.925,32.000 -0.000,27.075 -0.000,21.000 C-0.000,21.000 -0.000,11.000 -0.000,11.000 C-0.000,4.925 4.925,0.000 11.000,0.000 C17.075,0.000 22.000,4.925 22.000,11.000 C22.000,11.000 22.000,21.000 22.000,21.000 C22.000,27.075 17.075,32.000 11.000,32.000 ZM20.000,11.000 C20.000,6.029 15.971,2.000 11.000,2.000 C6.029,2.000 2.000,6.029 2.000,11.000 C2.000,11.000 2.000,21.000 2.000,21.000 C2.000,25.970 6.029,30.000 11.000,30.000 C15.971,30.000 20.000,25.970 20.000,21.000 C20.000,21.000 20.000,11.000 20.000,11.000 ZM11.000,13.000 C10.448,13.000 10.000,12.552 10.000,12.000 C10.000,12.000 10.000,8.000 10.000,8.000 C10.000,7.448 10.448,7.000 11.000,7.000 C11.552,7.000 12.000,7.448 12.000,8.000 C12.000,8.000 12.000,12.000 12.000,12.000 C12.000,12.552 11.552,13.000 11.000,13.000 Z" id="path-1" class="cls-2" fill-rule="evenodd"/>
</svg>
